<svg width="285" height="309" viewBox="0 0 285 309" fill="none" xmlns="http://www.w3.org/2000/svg">
<mask id="path-1-inside-1_138_23" fill="white">
<path fill-rule="evenodd" clip-rule="evenodd" d="M219.842 23.2782C206.514 13.6073 190.617 7.08636 173.322 4.85319C163.469 1.70396 152.94 0 142 0C131.06 0 120.531 1.70396 110.678 4.85319C90.9598 7.3993 73.0572 15.5192 58.7094 27.5263C40.4061 39.0256 26.2232 56.1704 18.7808 76.4191C13.9729 86.2522 10.2904 96.98 7.9468 108.345C2.83078 122.828 0 138.766 0 155.5C0 159.55 0.165791 163.553 0.489642 167.5C0.165791 171.447 0 175.45 0 179.5C0 237.093 33.5305 285.249 78.3514 297.169C94.2598 304.641 113.403 309 134 309C147.953 309 161.239 307 173.305 303.386C210.78 299.898 241.699 281.883 254.127 257.692C267.547 240.363 276.775 218.259 279.864 193.726C283.195 181.715 285 168.861 285 155.5C285 153.319 284.952 151.152 284.857 149C284.952 146.848 285 144.681 285 142.5C285 114.512 277.082 88.7529 263.797 68.2978C254.606 49.0382 239.093 33.1966 219.842 23.2782Z"/>
</mask>
<path fill-rule="evenodd" clip-rule="evenodd" d="M219.842 23.2782C206.514 13.6073 190.617 7.08636 173.322 4.85319C163.469 1.70396 152.94 0 142 0C131.06 0 120.531 1.70396 110.678 4.85319C90.9598 7.3993 73.0572 15.5192 58.7094 27.5263C40.4061 39.0256 26.2232 56.1704 18.7808 76.4191C13.9729 86.2522 10.2904 96.98 7.9468 108.345C2.83078 122.828 0 138.766 0 155.5C0 159.55 0.165791 163.553 0.489642 167.5C0.165791 171.447 0 175.45 0 179.5C0 237.093 33.5305 285.249 78.3514 297.169C94.2598 304.641 113.403 309 134 309C147.953 309 161.239 307 173.305 303.386C210.78 299.898 241.699 281.883 254.127 257.692C267.547 240.363 276.775 218.259 279.864 193.726C283.195 181.715 285 168.861 285 155.5C285 153.319 284.952 151.152 284.857 149C284.952 146.848 285 144.681 285 142.5C285 114.512 277.082 88.7529 263.797 68.2978C254.606 49.0382 239.093 33.1966 219.842 23.2782Z" fill="#F06E3E"/>
<path d="M173.322 4.85319L173.017 5.80571L173.104 5.83334L173.194 5.84496L173.322 4.85319ZM219.842 23.2782L219.255 24.0875L219.317 24.1322L219.384 24.1671L219.842 23.2782ZM110.678 4.85319L110.806 5.84496L110.896 5.83334L110.983 5.80571L110.678 4.85319ZM58.7094 27.5263L59.2413 28.3731L59.299 28.3369L59.3511 28.2932L58.7094 27.5263ZM18.7808 76.4191L19.6792 76.8583L19.7017 76.8122L19.7194 76.764L18.7808 76.4191ZM7.9468 108.345L8.8897 108.678L8.91242 108.614L8.92619 108.547L7.9468 108.345ZM0.489642 167.5L1.48629 167.582L1.493 167.5L1.48629 167.418L0.489642 167.5ZM78.3514 297.169L78.7766 296.264L78.6953 296.225L78.6084 296.202L78.3514 297.169ZM173.305 303.386L173.212 302.39L173.113 302.399L173.018 302.428L173.305 303.386ZM254.127 257.692L253.336 257.08L253.28 257.153L253.237 257.235L254.127 257.692ZM279.864 193.726L278.9 193.459L278.881 193.529L278.871 193.601L279.864 193.726ZM284.857 149L283.858 148.956L283.856 149L283.858 149.044L284.857 149ZM263.797 68.2978L262.894 68.7285L262.923 68.7876L262.958 68.8425L263.797 68.2978ZM173.194 5.84496C190.32 8.05632 206.06 14.5132 219.255 24.0875L220.429 22.4688C206.969 12.7014 190.913 6.11639 173.45 3.86142L173.194 5.84496ZM142 1C152.835 1 163.262 2.68765 173.017 5.80571L173.626 3.90067C163.676 0.720275 153.044 -1 142 -1V1ZM110.983 5.80571C120.738 2.68764 131.165 1 142 1V-1C130.956 -1 120.324 0.720274 110.374 3.90067L110.983 5.80571ZM59.3511 28.2932C73.5554 16.4062 91.2804 8.3662 110.806 5.84496L110.55 3.86142C90.6391 6.4324 72.5591 14.6321 58.0676 26.7594L59.3511 28.2932ZM19.7194 76.764C27.0829 56.7302 41.1189 39.7588 59.2413 28.3731L58.1774 26.6796C39.6933 38.2925 25.3635 55.6107 17.8422 76.0741L19.7194 76.764ZM8.92619 108.547C11.2531 97.2628 14.9087 86.6149 19.6792 76.8583L17.8824 75.9798C13.037 85.8896 9.32767 96.6972 6.9674 108.143L8.92619 108.547ZM1 155.5C1 138.879 3.81174 123.054 8.8897 108.678L7.00389 108.012C1.84983 122.603 -1 138.653 -1 155.5H1ZM1.48629 167.418C1.16467 163.498 1 159.522 1 155.5H-1C-1 159.577 -0.833091 163.607 -0.507009 167.582L1.48629 167.418ZM1 179.5C1 175.478 1.16467 171.502 1.48629 167.582L-0.507009 167.418C-0.833091 171.393 -1 175.423 -1 179.5H1ZM78.6084 296.202C34.3221 284.425 1 236.748 1 179.5H-1C-1 237.438 32.7389 286.073 78.0944 298.135L78.6084 296.202ZM134 308C113.541 308 94.5442 303.67 78.7766 296.264L77.9263 298.074C93.9755 305.612 113.265 310 134 310V308ZM173.018 302.428C161.048 306.013 147.859 308 134 308V310C148.048 310 161.431 307.986 173.591 304.344L173.018 302.428ZM253.237 257.235C241.015 281.026 210.471 298.923 173.212 302.39L173.397 304.382C211.09 300.874 242.383 282.74 255.016 258.149L253.237 257.235ZM278.871 193.601C275.804 217.965 266.641 239.899 253.336 257.08L254.918 258.305C268.452 240.827 277.746 218.553 280.856 193.851L278.871 193.601ZM284 155.5C284 168.771 282.207 181.535 278.9 193.459L280.827 193.993C284.183 181.895 286 168.951 286 155.5H284ZM283.858 149.044C283.952 151.182 284 153.334 284 155.5H286C286 153.305 285.952 151.123 285.856 148.956L283.858 149.044ZM284 142.5C284 144.666 283.952 146.818 283.858 148.956L285.856 149.044C285.952 146.877 286 144.695 286 142.5H284ZM262.958 68.8425C276.134 89.1302 284 114.699 284 142.5H286C286 114.325 278.029 88.3756 264.636 67.7531L262.958 68.8425ZM219.384 24.1671C238.446 33.9879 253.799 49.6707 262.894 68.7285L264.699 67.8671C255.412 48.4057 239.741 32.4054 220.3 22.3892L219.384 24.1671Z" fill="black" mask="url(#path-1-inside-1_138_23)"/>
</svg>
